<svg width="32" height="60" viewBox="0 0 32 60" fill="none" xmlns="http://www.w3.org/2000/svg">
<path d="M22.6861 21.3766H30.0668V44.0471C30.0668 46.5925 29.4589 48.8198 28.2429 50.7289C27.0384 52.638 25.3509 54.1266 23.1804 55.1948C21.01 56.2516 18.4816 56.78 15.5952 56.78C12.6975 56.78 10.1634 56.2516 7.99294 55.1948C5.82249 54.1266 4.13499 52.638 2.93044 50.7289C1.7259 48.8198 1.12362 46.5925 1.12362 44.0471V21.3766H8.50431V43.4164C8.50431 44.7459 8.79408 45.9278 9.37362 46.9619C9.96453 47.9959 10.7941 48.8084 11.8623 49.3994C12.9304 49.9903 14.1748 50.2857 15.5952 50.2857C17.027 50.2857 18.2714 49.9903 19.3282 49.3994C20.3964 48.8084 21.2202 47.9959 21.7998 46.9619C22.3907 45.9278 22.6861 44.7459 22.6861 43.4164V21.3766Z" fill="white"/>
<path d="M1.27064 17.1761V11.0909H29.9411V17.1761H19.2536V46H11.9581V17.1761H1.27064Z" fill="white"/>
</svg>
